<svg width="331" height="81" viewBox="0 0 331 81" fill="none" xmlns="http://www.w3.org/2000/svg">
<path d="M67.125 27.7187C68.75 27.5937 70.4063 27.5312 72.0938 27.5312C73.8021 27.5312 75.2708 27.9479 76.5 28.7812C77.75 29.6146 78.375 30.8229 78.375 32.4062C78.375 33.5937 78.0417 34.6979 77.375 35.7187C76.7292 36.7396 75.9479 37.5104 75.0313 38.0312C76.5104 38.4896 77.75 39.2812 78.75 40.4062C79.75 41.5312 80.25 42.7917 80.25 44.1875C80.25 46.1458 79.625 47.6354 78.375 48.6562C77.1458 49.6771 75.4479 50.1875 73.2813 50.1875C71.1354 50.1875 69.0833 50.1042 67.125 49.9375V27.7187ZM73.4688 48.8437C74.9896 48.8437 76.2396 48.4271 77.2188 47.5937C78.1979 46.7396 78.6875 45.6562 78.6875 44.3437C78.6875 43.0312 78.2083 41.8958 77.25 40.9375C76.3125 39.9792 75.0208 39.3229 73.375 38.9687C72.6042 38.8021 71.7083 38.7187 70.6875 38.7187C69.6875 38.7187 69 38.7187 68.625 38.7187V48.6875C69.5417 48.7917 71.1563 48.8437 73.4688 48.8437ZM76.875 32.375C76.875 31.2292 76.3958 30.3437 75.4375 29.7187C74.5 29.0937 73.4375 28.7812 72.25 28.7812C71.0833 28.7812 69.875 28.8229 68.625 28.9062V37.4375C68.8958 37.4375 69.4063 37.4375 70.1563 37.4375C70.9063 37.4375 72.0104 37.5 73.4688 37.625C74.4063 37.125 75.2083 36.4062 75.875 35.4687C76.5417 34.5312 76.875 33.5 76.875 32.375ZM86.4033 50V29.8125C88.195 29.6667 89.7158 29.5937 90.9658 29.5937C92.8825 29.5937 94.4658 30.0937 95.7158 31.0937C96.9658 32.0729 97.5908 33.4792 97.5908 35.3125C97.5908 36.5417 97.2367 37.6771 96.5283 38.7187C95.82 39.7604 95.0179 40.6042 94.1221 41.25C96.6012 44.5417 98.1325 46.5104 98.7158 47.1562C99.9033 48.3854 101.195 49.0833 102.591 49.25L102.56 50.2188C101.393 50.1979 100.445 50.0312 99.7158 49.7187C98.9867 49.3854 98.2575 48.8333 97.5283 48.0625C96.82 47.2917 95.2471 45.2187 92.8096 41.8437C91.1221 41.8437 89.4658 41.7917 87.8408 41.6875V50H86.4033ZM92.0283 40.6562C92.8408 40.6562 93.7158 40.1146 94.6533 39.0312C95.5908 37.9479 96.0596 36.6875 96.0596 35.25C96.0596 33.8125 95.57 32.7187 94.5908 31.9687C93.6117 31.2187 92.3408 30.8437 90.7783 30.8437C89.945 30.8437 88.9658 30.8854 87.8408 30.9687V40.5C89.3408 40.6042 90.7367 40.6562 92.0283 40.6562ZM105.416 50V29.7187H106.853V50H105.416ZM117.982 31H111.107V29.7187H126.264V31H119.389V50H117.982V31ZM134.126 31H127.251V29.7187H142.407V31H135.532V50H134.126V31ZM146.645 50V29.5937H147.333L160.645 44.9062C161.124 45.4479 161.562 45.9896 161.958 46.5312C162.374 47.0521 162.593 47.3229 162.614 47.3437C162.572 46.8437 162.551 45.8646 162.551 44.4062V29.7187H163.989V50.125H163.301L149.739 34.5625L148.02 32.4687C148.062 32.8854 148.083 33.8646 148.083 35.4062V50H146.645ZM171.486 50V29.7187H180.955V30.9687H172.924V38.3437H180.174V39.5625H172.924V48.6875H181.268V50H171.486ZM192.707 50H191.301V42.75L183.645 29.7187H185.364L191.27 39.7812C191.728 40.6979 191.989 41.1875 192.051 41.25C192.176 40.9792 192.436 40.5 192.832 39.8125L198.739 29.7187H200.364L192.707 42.8125V50ZM216.112 50V27.7812C217.841 27.6146 219.518 27.5312 221.143 27.5312C223.331 27.5312 225.081 28.0417 226.393 29.0625C227.726 30.0833 228.393 31.625 228.393 33.6875C228.393 35.7292 227.487 37.4167 225.674 38.75C223.883 40.0625 221.737 40.7187 219.237 40.7187C219.133 40.7187 219.018 40.7187 218.893 40.7187V39.6875C218.976 39.6875 219.049 39.6875 219.112 39.6875C221.174 39.6875 222.966 39.1458 224.487 38.0625C226.008 36.9792 226.768 35.5729 226.768 33.8437C226.768 32.0937 226.237 30.8333 225.174 30.0625C224.112 29.2708 222.685 28.875 220.893 28.875C219.956 28.875 218.862 28.9167 217.612 29V50H216.112ZM242.864 50.3125C239.968 50.3125 237.541 49.3021 235.582 47.2812C233.624 45.2604 232.645 42.7917 232.645 39.875C232.645 36.9375 233.624 34.4583 235.582 32.4375C237.541 30.4167 239.968 29.4062 242.864 29.4062C245.759 29.4062 248.186 30.4167 250.145 32.4375C252.103 34.4583 253.082 36.9375 253.082 39.875C253.082 42.7917 252.103 45.2604 250.145 47.2812C248.186 49.3021 245.759 50.3125 242.864 50.3125ZM242.864 30.6875C240.364 30.6875 238.28 31.5729 236.614 33.3437C234.968 35.1146 234.145 37.2917 234.145 39.875C234.145 42.4375 234.968 44.6042 236.614 46.375C238.28 48.125 240.364 49 242.864 49C245.384 49 247.468 48.125 249.114 46.375C250.759 44.6042 251.582 42.4375 251.582 39.875C251.582 37.2917 250.759 35.1146 249.114 33.3437C247.468 31.5729 245.384 30.6875 242.864 30.6875ZM263.44 30.5937C262.315 30.5937 261.399 30.8646 260.69 31.4062C259.982 31.9479 259.628 32.7083 259.628 33.6875C259.628 34.8125 260.096 35.8229 261.034 36.7187C261.701 37.3646 262.555 38.0521 263.596 38.7812C264.659 39.4896 265.388 40 265.784 40.3125C266.18 40.625 266.659 41.0521 267.221 41.5937C268.242 42.6146 268.753 43.7917 268.753 45.125C268.753 46.8542 268.169 48.1667 267.003 49.0625C265.857 49.9375 264.242 50.375 262.159 50.375C260.096 50.375 258.367 49.8333 256.971 48.75L257.721 47.6562C259.138 48.6146 260.638 49.0937 262.221 49.0937C263.805 49.0937 265.034 48.7604 265.909 48.0937C266.805 47.4271 267.253 46.4896 267.253 45.2812C267.253 44.2396 266.805 43.2812 265.909 42.4062C265.284 41.7812 264.44 41.1042 263.378 40.375C262.336 39.6458 261.607 39.125 261.19 38.8125C260.774 38.4792 260.284 38.0417 259.721 37.5C258.659 36.4375 258.128 35.2083 258.128 33.8125C258.128 32.4167 258.617 31.3229 259.596 30.5312C260.596 29.7396 261.971 29.3437 263.721 29.3437C265.471 29.3437 267.044 29.6875 268.44 30.375L267.909 31.5312C266.617 30.9062 265.128 30.5937 263.44 30.5937ZM278.139 31H271.264V29.7187H286.42V31H279.545V50H278.139V31ZM299.575 48.9375H298.732L292.825 34.5937C292.575 34.0312 292.325 33.375 292.075 32.625C292.075 32.6458 292.055 32.7604 292.013 32.9687C291.992 33.1771 291.961 33.4583 291.919 33.8125C291.878 34.1458 291.836 34.4271 291.794 34.6562L289.45 50H288.044L291.357 29.5937H292.2L298.513 44.5625C299.013 45.8125 299.263 46.4687 299.263 46.5312C299.409 46.0937 299.69 45.4479 300.107 44.5937L307.138 29.5937H307.982L311.075 50H309.575L307.357 34.5937C307.211 33.5729 307.138 32.8958 307.138 32.5625L306.232 34.625L299.575 48.9375ZM317.445 42.9687L314.539 50H313.07L321.57 29.5937H322.414L330.976 50H329.382L326.445 42.9687H317.445ZM321.914 31.9062C321.601 32.8437 321.32 33.625 321.07 34.25L317.945 41.75H325.945L322.851 34.2812C322.372 33.1146 322.059 32.3229 321.914 31.9062Z" fill="#CBC8BF"/>
<g filter="url(#filter0_d)">
<path d="M50.6788 65.1148C45.9911 70.1637 39.6336 73 33.0046 73C26.3756 73 20.0181 70.1637 15.3304 65.1148C15.0879 64.8536 14.8559 64.5925 14.6232 64.3234C13.385 62.8758 12.2962 61.2878 11.3757 59.5874C11.7402 59.7154 12.1031 59.8381 12.4701 59.9513C12.4789 59.9556 12.4881 59.9588 12.4975 59.9609H12.5072C12.8944 60.0836 13.2775 60.2012 13.6606 60.3091C13.7568 60.3344 13.8481 60.364 13.9394 60.3962C14.3039 60.4945 14.6668 60.5929 15.0386 60.6765C15.1403 60.7091 15.2436 60.7353 15.3481 60.7549C15.627 60.8289 15.9139 60.8924 16.1968 60.9516C16.3932 60.996 16.6009 61.0387 16.79 61.0796C17.0818 61.1379 17.3687 61.1928 17.6605 61.2415C17.8528 61.2807 18.0347 61.3103 18.2311 61.3347C18.4776 61.3843 18.7281 61.4217 18.9795 61.4531C19.1977 61.4922 19.4168 61.5219 19.6406 61.5462C19.9461 61.5906 20.2516 61.6246 20.566 61.649C20.6937 61.669 20.8263 61.6838 20.9629 61.6934C21.2959 61.7282 21.6289 61.7526 21.9667 61.7717C22.1445 61.7865 22.3223 61.8013 22.509 61.8065C22.6957 61.8118 22.897 61.8309 23.0934 61.8361C23.4579 61.8553 23.8272 61.8605 24.1974 61.8657C24.2428 61.8701 24.2886 61.8701 24.334 61.8657C24.6896 61.8753 25.0501 61.8657 25.4057 61.8605C25.6482 61.8657 25.885 61.8553 26.1169 61.8405C26.382 61.8405 26.6415 61.8266 26.9017 61.8118C27.052 61.8065 27.1983 61.797 27.3398 61.7822C27.6865 61.7621 28.0332 61.7325 28.3791 61.7038C28.5569 61.689 28.7396 61.669 28.9174 61.6446C29.1728 61.6246 29.4242 61.6002 29.6707 61.5575C29.9131 61.5332 30.1556 61.4983 30.3908 61.4592C30.605 61.4348 30.82 61.4 31.0253 61.366C31.2984 61.3268 31.5676 61.279 31.8335 61.2285C32.0994 61.178 32.3807 61.1301 32.6546 61.0709C32.7806 61.0523 32.9056 61.0261 33.0288 60.9925C33.4119 60.9133 33.795 60.8254 34.1733 60.7313C34.648 60.6234 35.1179 60.5006 35.5828 60.3631C35.7881 60.3082 35.9869 60.2499 36.189 60.189C37.8239 59.7023 39.4296 59.1083 40.9971 58.4103C41.2202 58.3172 41.4392 58.2188 41.6582 58.1108C41.9007 58.0072 42.1367 57.8897 42.3743 57.7713C42.5707 57.6782 42.7712 57.5798 42.9676 57.477C43.1858 57.3691 43.4048 57.2507 43.6198 57.1384C44.4038 56.7248 45.1748 56.2878 45.9321 55.8159C46.1237 55.6984 46.3104 55.5852 46.4979 55.4625C46.6215 55.3885 46.7355 55.3153 46.8543 55.2361L47.429 54.8531C48.2089 54.3307 48.9702 53.7726 49.7227 53.1876L50.2294 52.7897L50.4574 52.6034C50.6578 52.4461 50.854 52.2839 51.0458 52.1168C51.3375 51.8713 51.6293 51.6257 51.9122 51.3698C51.993 51.3062 52.0625 51.2375 52.136 51.1687C52.3316 50.9946 52.528 50.8152 52.7196 50.6376C52.9111 50.46 53.1075 50.2694 53.2991 50.083C53.4357 49.9551 53.5682 49.8219 53.7032 49.6852C54.1412 49.2528 54.5698 48.8105 54.9891 48.3584C55.2041 48.1268 55.4134 47.9013 55.6146 47.6619C55.7237 47.5444 55.8288 47.4312 55.9339 47.3084C56.2984 46.8853 56.654 46.4631 57.0007 46.0313L57.0145 46.0165C57.101 45.9129 57.1883 45.8101 57.2699 45.7013C57.5026 45.4114 57.7257 45.1215 57.9544 44.8307C57.9624 44.8224 57.9685 44.8123 57.9722 44.8011C58.0273 46.066 58.0004 47.3335 57.8914 48.5943V48.6239C57.8914 48.6291 57.8897 48.634 57.8866 48.6379C57.3418 54.8677 54.7922 60.6963 50.6788 65.1148Z" fill="url(#paint0_linear)"/>
<path d="M54.9937 48.361C49.5401 54.2397 42.7126 58.421 35.2336 60.4624C27.7546 62.5038 19.9024 62.3293 12.5079 59.9574C12.4949 59.9582 12.4819 59.9549 12.4707 59.9478H12.4618C12.0973 59.8294 11.7344 59.7066 11.3764 59.5839C10.2802 57.5577 9.43955 55.3832 8.87654 53.1179C8.46807 51.481 8.20262 49.8065 8.08368 48.1163C8.41182 48.1068 8.73591 48.092 9.06405 48.0719H9.07294C9.08031 48.0694 9.08821 48.0694 9.09557 48.0719H9.10042C19.6382 47.4742 29.5956 42.6878 37.0463 34.6386C40.2613 31.177 42.9474 27.1891 45.0049 22.8228V22.8176C45.0138 22.808 45.0186 22.7932 45.0275 22.7836L45.0186 22.7828C45.0236 22.772 45.0298 22.7621 45.0372 22.7532C45.2239 22.3553 45.4066 21.9522 45.5803 21.5491L50.6794 27.0426C55.0855 31.7755 57.6886 38.1125 57.9769 44.8081C57.6665 45.2207 57.3473 45.6238 57.0191 46.0269C56.3758 46.8226 55.7009 47.5992 54.9937 48.361Z" fill="url(#paint1_linear)"/>
<path d="M37.046 34.6386C36.7405 34.9677 36.4301 35.2916 36.1198 35.6067C35.9193 35.813 35.7156 36.0089 35.5136 36.2109C34.6924 37.0159 33.844 37.7823 32.9685 38.5102C32.7446 38.7017 32.5215 38.8836 32.2928 39.0604C32.0196 39.2867 31.7416 39.4957 31.4587 39.7142C31.1936 39.9205 30.9293 40.1164 30.6562 40.3132C30.5915 40.3619 30.5236 40.4063 30.4598 40.4559C30.2359 40.6179 30.0031 40.7798 29.7752 40.9374C28.589 41.7535 27.3651 42.5044 26.1083 43.187C25.8618 43.3246 25.6161 43.4525 25.3736 43.5753C25.3463 43.5934 25.3173 43.6083 25.2871 43.6197C25.0366 43.752 24.7949 43.8748 24.5436 43.9975C24.4708 44.0376 24.3892 44.0768 24.3068 44.1159C24.0376 44.2483 23.7685 44.371 23.4985 44.4947C23.193 44.6366 22.8827 44.7741 22.5723 44.9021C22.262 45.0301 21.9298 45.172 21.6025 45.3052C21.3018 45.4227 20.9963 45.5359 20.6997 45.6534C20.3764 45.771 20.0652 45.8841 19.7508 45.9869C19.4364 46.0896 19.1164 46.1984 18.7971 46.2968C18.4779 46.3952 18.1586 46.4936 17.8442 46.5867C17.5298 46.6799 17.1976 46.7687 16.8743 46.8479C16.5511 46.9271 16.2318 47.0098 15.9045 47.0838C15.2579 47.2353 14.6113 47.3729 13.9647 47.4913C13.3181 47.6097 12.6602 47.7072 12.008 47.8003C11.0381 47.9231 10.0683 48.0171 9.08871 48.0754H9.08386C9.07497 48.0754 9.07497 48.0754 9.07012 48.0754C9.06959 48.0761 9.06892 48.0767 9.06814 48.0772C9.06737 48.0775 9.06653 48.0778 9.06568 48.0778C9.06482 48.0778 9.06397 48.0775 9.0632 48.0772C9.06243 48.0767 9.06176 48.0761 9.06123 48.0754C8.73309 48.0955 8.4001 48.1103 8.07196 48.1198C7.9704 46.6805 7.97635 45.2348 8.08975 43.7964C8.09404 43.7822 8.09569 43.767 8.0946 43.752C8.59279 37.4355 11.1525 31.5132 15.3193 27.0365L33.0049 8L45.5792 21.5448C45.4054 21.9479 45.2276 22.3457 45.0361 22.7392V22.7488C45.0286 22.7577 45.0223 22.7677 45.0175 22.7784L45.0223 22.7837L45.0086 22.7976C45.0058 22.8 45.0036 22.8031 45.002 22.8065C45.0005 22.8099 44.9997 22.8138 44.9997 22.8176V22.8228C44.9866 22.8458 44.976 22.8704 44.9682 22.896L44.8453 23.1467C44.5199 23.8327 44.1718 24.5124 43.8011 25.1856C43.5586 25.6427 43.2992 26.0998 43.0349 26.5516C42.5564 27.3717 42.0473 28.1857 41.5074 28.9936C41.3748 29.1852 41.252 29.3767 41.1146 29.563C40.7913 30.0296 40.4623 30.4919 40.1205 30.949C39.9976 31.1231 39.8651 31.2972 39.7325 31.4548C39.4957 31.7691 39.2476 32.079 38.9986 32.3837C38.3747 33.1551 37.7238 33.9067 37.046 34.6386Z" fill="url(#paint2_linear)"/>
<g style="mix-blend-mode:multiply" opacity="0.15">
<g style="mix-blend-mode:multiply" opacity="0.15">
<path d="M8.87654 53.1215C8.46807 51.4846 8.20262 49.8101 8.08368 48.1199C18.9831 47.7811 29.3478 42.9566 37.0463 34.6387C40.5753 30.8411 43.4629 26.4103 45.5795 21.5449C45.5795 21.5449 41.1238 43.4622 8.87654 53.1215Z" fill="black"/>
</g>
</g>
<g style="mix-blend-mode:multiply" opacity="0.15">
<g style="mix-blend-mode:multiply" opacity="0.15">
<path d="M14.624 64.3234C13.3858 62.8758 12.297 61.2878 11.3765 59.5874C18.9001 62.2407 26.9593 62.5958 34.659 60.6133C42.3587 58.6308 49.3975 54.3882 54.9939 48.3566C56.0434 47.226 57.0391 46.0387 57.9771 44.7994C57.9771 44.7994 45.5385 68.4109 14.624 64.3234Z" fill="black"/>
</g>
</g>
<g style="mix-blend-mode:multiply" opacity="0.25">
<g style="mix-blend-mode:multiply" opacity="0.25">
<path d="M53.0004 50.8223C52.5996 51.196 52.1801 51.5889 51.742 52.001C51.2991 52.3998 50.8619 52.8716 50.3503 53.2547C49.8492 53.6569 49.3246 54.0748 48.7904 54.5023C48.2659 54.9498 47.6686 55.3076 47.085 55.7211C46.4918 56.1542 45.8766 56.5511 45.2423 56.9104C44.5957 57.2795 43.9491 57.6521 43.2856 58.036C42.6059 58.3747 41.9116 58.6986 41.206 59.0285C40.5126 59.382 39.7739 59.6275 39.0481 59.9174L37.9537 60.3396C37.5844 60.4728 37.2053 60.5756 36.8319 60.694C36.0835 60.9003 35.34 61.1702 34.5786 61.3226C33.8213 61.4897 33.064 61.6569 32.3115 61.8188C30.8342 62.0769 29.3453 62.2513 27.851 62.3412C26.4552 62.4285 25.0563 62.4401 23.6595 62.376C22.9935 62.3168 22.3453 62.2576 21.7198 62.2019C21.4094 62.1723 21.1039 62.1383 20.8033 62.1087C20.5066 62.0643 20.21 62.0103 19.9271 61.9616C19.3525 61.8632 18.8102 61.7692 18.2856 61.676C17.7611 61.5829 17.2818 61.4305 16.8211 61.3278C15.9095 61.0814 15.1109 60.9003 14.4676 60.6592C13.2682 60.2517 12.557 59.9862 12.4697 59.9522C12.4809 59.9593 12.4938 59.9627 12.5068 59.9618C19.9018 62.3333 27.7544 62.5073 35.2336 60.4651C42.7127 58.4229 49.5403 54.2408 54.9935 48.3611C55.7007 47.5993 56.3756 46.8227 57.0189 46.0226C56.9187 46.1593 56.4532 46.7792 55.6967 47.7517C55.4679 48.0268 55.2586 48.3315 54.9531 48.6606L54.0406 49.6731L53.0004 50.8223Z" fill="black"/>
</g>
</g>
<g style="mix-blend-mode:multiply" opacity="0.25">
<g style="mix-blend-mode:multiply" opacity="0.25">
<path d="M9.09481 48.0712H9.09956C9.0861 48.0765 9.08134 48.0712 9.07263 48.0712C9.07985 48.0686 9.08759 48.0686 9.09481 48.0712Z" fill="black"/>
</g>
</g>
<g style="mix-blend-mode:multiply" opacity="0.25">
<g style="mix-blend-mode:multiply" opacity="0.25">
<path d="M45.0232 22.7825C45.016 22.7949 45.0097 22.808 45.0046 22.8216V22.8164C45.0046 22.8016 45.0184 22.7921 45.0224 22.7773C45.0273 22.7667 45.0336 22.7568 45.041 22.7478C45.041 22.7478 45.0321 22.7634 45.0232 22.7825Z" fill="black"/>
</g>
</g>
<g style="mix-blend-mode:multiply" opacity="0.25">
<g style="mix-blend-mode:multiply" opacity="0.25">
<path d="M37.0365 35.4935C36.0714 36.5505 35.0528 37.5495 33.9855 38.4857C32.8879 39.454 31.7445 40.3605 30.5603 41.202C29.9581 41.6251 29.356 42.0378 28.7361 42.4112L27.8147 42.9806C27.4995 43.1547 27.1892 43.3289 26.8748 43.503C26.5604 43.6771 26.25 43.8512 25.9396 44.0192C25.6252 44.1716 25.306 44.3292 24.9956 44.4763C24.366 44.7906 23.7364 45.0561 23.1117 45.3164C22.4918 45.5915 21.871 45.8179 21.26 46.0338C20.649 46.2497 20.042 46.4413 19.4536 46.6136C18.8701 46.7999 18.2955 46.9572 17.7297 47.0855C17.1688 47.2178 16.6257 47.3467 16.1011 47.4433C15.5766 47.5399 15.0755 47.6453 14.5962 47.7088C14.1169 47.7724 13.657 47.8272 13.2279 47.876C12.3663 47.9692 11.6114 48.004 10.998 48.058C9.91659 48.0823 9.24576 48.0771 9.10028 48.0771C19.6387 47.478 29.5962 42.6896 37.0462 34.6385C40.2612 31.1769 42.9473 27.189 45.0048 22.8228C44.9733 22.9098 44.9143 23.0482 44.8319 23.2581C44.7042 23.5828 44.5086 24.0642 44.2346 24.6588C43.4798 26.3165 42.6202 27.9164 41.662 29.4471C41.0242 30.4758 40.339 31.4696 39.6091 32.4246C38.8074 33.5002 37.9484 34.5249 37.0365 35.4935Z" fill="black"/>
</g>
</g>
<g style="mix-blend-mode:screen" opacity="0.4">
<g style="mix-blend-mode:screen" opacity="0.4">
<path d="M54.9934 48.361C49.5398 54.2397 42.7123 58.421 35.2333 60.4624C27.7542 62.5038 19.902 62.3293 12.5076 59.9574C12.6854 59.9913 13.4055 60.1393 14.5322 60.3927C15.1787 60.5668 15.9918 60.6678 16.9084 60.8106C17.8257 60.9847 18.8748 61.0613 20.0055 61.1693C20.2932 61.1936 20.585 61.2232 20.8767 61.2563C21.1734 61.2616 21.474 61.2711 21.7803 61.2764C22.3954 61.3007 23.0298 61.3155 23.6821 61.3399C24.9817 61.2764 26.3549 61.2903 27.7685 61.1135C29.1869 61.0265 30.6239 60.7305 32.0973 60.4998C32.8268 60.3326 33.558 60.164 34.2908 59.994C35.0295 59.8364 35.7456 59.5665 36.473 59.3602C36.8383 59.2522 37.2077 59.1582 37.5633 59.0311L38.631 58.628C39.3374 58.3572 40.0583 58.1317 40.738 57.7922C41.4177 57.4831 42.0974 57.1732 42.7723 56.8685C43.4245 56.5203 44.0719 56.172 44.7064 55.8368C45.353 55.5226 45.9373 55.1003 46.5354 54.7512C47.1278 54.3777 47.7259 54.0547 48.2545 53.6455C49.3359 52.862 50.385 52.1568 51.2692 51.3907C51.7258 51.0277 52.1639 50.6733 52.5785 50.3347C52.9826 49.9707 53.3584 49.6216 53.71 49.2978C54.0616 48.9739 54.3986 48.664 54.7049 48.3836C55.0007 48.1225 55.261 47.8143 55.5075 47.5688C56.3553 46.6842 56.8936 46.1436 57.0124 46.0261C56.3755 46.8227 55.7006 47.5992 54.9934 48.361Z" fill="white"/>
</g>
</g>
<g style="mix-blend-mode:screen" opacity="0.4">
<g style="mix-blend-mode:screen" opacity="0.4">
<path d="M37.0461 34.6387C29.5958 42.6891 19.6383 47.4769 9.10011 48.0755C9.08637 48.0807 9.08152 48.0755 9.07263 48.0755C9.07999 48.0731 9.08789 48.0731 9.09526 48.0755C9.24559 48.0511 9.91238 47.9423 10.9841 47.7908C11.5862 47.6724 12.3201 47.5592 13.155 47.3677C13.9899 47.1762 14.9331 46.955 15.9417 46.6651C16.4525 46.5372 16.9722 46.3709 17.5105 46.1933C18.0488 46.0157 18.6097 45.845 19.1754 45.6282C19.7452 45.4271 20.3247 45.2156 20.9091 44.9605C21.4934 44.7054 22.0947 44.4791 22.6831 44.1891C23.2852 43.914 23.8914 43.6337 24.4895 43.3046C25.0916 42.9999 25.7018 42.6708 26.2951 42.3217C26.6014 42.1476 26.902 41.9735 27.2076 41.7994L28.0966 41.2343C28.6939 40.8661 29.2734 40.4586 29.848 40.046C31.0068 39.2394 32.1271 38.3703 33.2046 37.442C34.2674 36.5227 35.2979 35.5894 36.2427 34.6213C37.9804 32.8711 39.5934 30.9823 41.0678 28.9711C42.122 27.5467 43.1043 26.0622 44.0105 24.5241C44.5488 23.6204 44.8907 23.0162 45.0006 22.8194C45.0006 22.8046 45.0143 22.795 45.0184 22.7802C45.0232 22.7695 45.0295 22.7595 45.037 22.7506C45.037 22.7506 45.0321 22.7654 45.0232 22.7855C45.0159 22.7979 45.0097 22.811 45.0046 22.8246C42.947 27.1903 40.2608 31.1776 37.0461 34.6387Z" fill="white"/>
</g>
</g>
<g style="mix-blend-mode:multiply" opacity="0.25">
<g style="mix-blend-mode:multiply" opacity="0.25">
<path d="M50.6792 65.1148C45.9915 70.1637 39.634 73 33.005 73C26.376 73 20.0186 70.1637 15.3308 65.1148C15.3308 65.1148 15.4997 65.2672 15.8157 65.5501C16.1301 65.8496 16.6183 66.2379 17.2293 66.7394C17.8541 67.2252 18.6299 67.7841 19.5416 68.3752C20.5729 69.0096 21.6375 69.5787 22.7301 70.0798C24.0228 70.6543 25.3557 71.1177 26.7162 71.4658C28.2275 71.8396 29.7659 72.0726 31.3142 72.1623C32.9657 72.2511 34.6213 72.1689 36.2581 71.9168C37.9458 71.6673 39.6037 71.2225 41.2028 70.59C42.8092 69.9732 44.3515 69.1778 45.8048 68.2168C47.2129 67.2848 48.5349 66.2099 49.753 65.0069C50.8944 63.8726 51.9415 62.6331 52.8824 61.3025C53.7241 60.102 54.4744 58.8302 55.1261 57.4997C55.6796 56.3656 56.1642 55.1939 56.5768 53.992C56.9324 52.9108 57.2056 51.9479 57.3931 51.1469C57.5806 50.346 57.7124 49.7026 57.7811 49.2656C57.8352 48.9312 57.8716 48.7249 57.8902 48.6361C57.345 54.8671 54.7941 60.6964 50.6792 65.1148Z" fill="black"/>
</g>
</g>
<g style="mix-blend-mode:screen" opacity="0.4">
<g style="mix-blend-mode:screen" opacity="0.4">
<path d="M35.4585 11.4981L33.0274 9.00641L29.78 12.6229C28.5531 13.9932 27.2939 15.34 26.0492 16.7008C24.8045 18.0615 23.5542 19.4075 22.295 20.7438C21.0358 22.0802 19.7895 23.4366 18.5093 24.7634L16.5987 26.7527L15.6635 27.7408C15.3532 28.0891 15.025 28.4182 14.7462 28.7577C14.1574 29.4329 13.604 30.143 13.0885 30.8846C12.5688 31.6316 12.0896 32.4125 11.6337 33.2091C11.1817 34.0064 10.7705 34.8298 10.402 35.6755C10.0237 36.5252 9.69479 37.3993 9.39413 38.2873C9.1161 39.177 8.83726 40.0755 8.63197 41.0044C8.41779 41.9038 8.24887 42.8327 8.10339 43.7555C8.60159 37.439 11.1613 31.5167 15.3281 27.04L33.0048 8L44.4072 20.2824C42.3688 18.381 40.3887 16.4257 38.4094 14.4607L35.4585 11.4981Z" fill="white"/>
</g>
</g>
</g>
<defs>
<filter id="filter0_d" x="0" y="0" width="66" height="81" filterUnits="userSpaceOnUse" color-interpolation-filters="sRGB">
<feFlood flood-opacity="0" result="BackgroundImageFix"/>
<feColorMatrix in="SourceAlpha" type="matrix" values="0 0 0 0 0 0 0 0 0 0 0 0 0 0 0 0 0 0 127 0"/>
<feOffset/>
<feGaussianBlur stdDeviation="4"/>
<feColorMatrix type="matrix" values="0 0 0 0 0 0 0 0 0 0 0 0 0 0 0 0 0 0 0.25 0"/>
<feBlend mode="normal" in2="BackgroundImageFix" result="effect1_dropShadow"/>
<feBlend mode="normal" in="SourceGraphic" in2="effect1_dropShadow" result="shape"/>
</filter>
<linearGradient id="paint0_linear" x1="-206.08" y1="-126.056" x2="-211.808" y2="-88.7269" gradientUnits="userSpaceOnUse">
<stop stop-color="#3E6896"/>
<stop offset="0.247" stop-color="#355881"/>
<stop offset="0.75" stop-color="#1F324E"/>
<stop offset="1" stop-color="#131D32"/>
</linearGradient>
<linearGradient id="paint1_linear" x1="33.0303" y1="21.5491" x2="33.0303" y2="61.8747" gradientUnits="userSpaceOnUse">
<stop stop-color="#CBC8BF"/>
<stop offset="0.890625" stop-color="#476173"/>
</linearGradient>
<linearGradient id="paint2_linear" x1="26.7896" y1="8" x2="26.7896" y2="48.1198" gradientUnits="userSpaceOnUse">
<stop stop-color="#EDECE9" stop-opacity="0.49"/>
<stop offset="1" stop-color="#CBC8BF"/>
</linearGradient>
</defs>
</svg>
